<?xml version="1.0" encoding="UTF-8"?>
<svg id="Layer_1" xmlns="http://www.w3.org/2000/svg" version="1.1" viewBox="0 0 3000 129">
  <!-- Generator: Adobe Illustrator 29.1.0, SVG Export Plug-In . SVG Version: 2.1.0 Build 142)  -->
  <defs>
    <style>
      .st0 {
        fill: none;
      }

      .st1 {
        fill-opacity: 0;
        stroke: #000;
        stroke-opacity: 0;
      }

      .st2 {
        fill: #ff5630;
      }
    </style>
  </defs>
  <g>
    <rect class="st0" x="1230" y="2.4" width="540" height="124.2"/>
    <path class="st2" d="M1259,99.5c-4.4,0-8.5-1.1-12.1-3.2-3.7-2.1-6.6-5-8.7-8.6-2.2-3.6-3.2-7.6-3.2-12,0-4.4,1.1-8.4,3.2-12,2.2-3.6,5.1-6.5,8.7-8.6,3.7-2.1,7.7-3.2,12.1-3.2s8.5,1.1,12.2,3.2c3.6,2.1,6.5,5,8.7,8.6,2.2,3.6,3.2,7.6,3.2,12,0,4.4-1.1,8.4-3.2,12-2.2,3.6-5.1,6.5-8.7,8.6-3.6,2.1-7.7,3.2-12.2,3.2M1259,91.7c3,0,5.6-.7,8-2.2,2.4-1.4,4.3-3.4,5.7-5.8s2.1-5.1,2.1-8.1c0-3-.7-5.6-2.1-8.1-1.4-2.4-3.3-4.3-5.7-5.8-2.4-1.5-5.1-2.2-8-2.2s-5.6.7-8,2.2c-2.4,1.4-4.3,3.4-5.7,5.8s-2.1,5.1-2.1,8.1c0,3,.7,5.6,2.1,8.1,1.4,2.4,3.3,4.3,5.7,5.8,2.4,1.5,5.1,2.2,8,2.2M1343.5,98.6h-33.1l21.7-38.5h-20.3v-7.3h33l-21.7,38.5h20.5v7.3ZM1383.3,98.5h-8.2v-45.8h8.2v45.8ZM1379.2,44.5c-1.5,0-2.8-.5-3.9-1.6-1.1-1.1-1.6-2.4-1.6-3.9s.5-2.9,1.6-3.9c1.1-1,2.4-1.6,3.9-1.6s2.9.5,3.9,1.6c1,1,1.6,2.4,1.6,3.9s-.5,2.8-1.6,3.9c-1,1.1-2.4,1.6-3.9,1.6M1426.2,98.5h-8.2v-45.8h7.6v6.6c1.7-2.5,3.8-4.4,6.4-5.6,2.6-1.2,5.3-1.9,8.1-1.9s6,.7,8.6,2.2c2.6,1.5,4.7,3.5,6.3,6.1,1.8-2.8,4.1-4.8,6.9-6.2,2.8-1.4,5.8-2.1,9-2.1s6.6.8,9.5,2.4c2.9,1.6,5.2,3.9,6.9,6.8,1.7,2.9,2.6,6.4,2.6,10.3v27.1h-8.2v-26.1c0-4.2-1.2-7.3-3.5-9.5-2.4-2.2-5.1-3.2-8.2-3.2-1.9,0-3.8.4-5.6,1.3-1.8.9-3.3,2.2-4.4,4-1.1,1.8-1.7,4.2-1.7,7.2v26.3h-8.2v-26.1c0-2.9-.6-5.3-1.7-7.2-1.1-1.9-2.6-3.3-4.4-4.2-1.8-.9-3.7-1.4-5.6-1.4-1.9,0-3.7.4-5.5,1.3-1.8.9-3.3,2.2-4.5,4-1.2,1.8-1.8,4.2-1.8,7.3v26.3ZM1543.1,99.2c-4.2,0-8-1.1-11.4-3.2-3.5-2.1-6.2-4.9-8.3-8.5-2.1-3.6-3.1-7.5-3.1-11.8s1-8.3,3.1-11.8c2.1-3.6,4.8-6.4,8.3-8.5,3.5-2.1,7.3-3.2,11.4-3.2s6.1.6,8.9,1.8c2.8,1.2,5.2,2.8,7.2,4.9v-6h7.6v45.8h-7.6v-6c-2,2-4.4,3.7-7.2,4.9-2.8,1.2-5.7,1.8-8.9,1.8M1544.2,91.7c2.9,0,5.5-.7,7.9-2.2,2.4-1.4,4.2-3.4,5.6-5.8,1.4-2.4,2.1-5.1,2.1-8.1s-.7-5.6-2.1-8.1c-1.4-2.4-3.3-4.3-5.6-5.8-2.4-1.5-5-2.2-7.9-2.2s-5.5.7-7.9,2.2c-2.4,1.4-4.2,3.4-5.7,5.8s-2.1,5.1-2.1,8.1.7,5.6,2.1,8.1,3.3,4.3,5.7,5.8c2.4,1.5,5,2.2,7.9,2.2M1609.8,98.5h-8.2v-45.8h7.6v7.4c1.7-2.7,3.9-4.8,6.5-6.2,2.7-1.4,5.6-2.1,8.7-2.1s6.3.8,9,2.4c2.8,1.6,5,3.9,6.8,6.9,1.7,3,2.6,6.7,2.6,11v26.3h-8.2v-25.2c0-3.6-1.1-6.8-3.2-9.6-2.2-2.8-5.2-4.2-9.1-4.2-3.2,0-6.1,1.2-8.6,3.5-2.5,2.3-3.8,5.7-3.8,10v25.4ZM1684.8,98.5h-8.2v-45.8h8.2v45.8ZM1680.6,44.5c-1.5,0-2.8-.5-3.9-1.6-1.1-1.1-1.6-2.4-1.6-3.9s.5-2.9,1.6-3.9,2.4-1.6,3.9-1.6,2.9.5,3.9,1.6c1,1,1.6,2.4,1.6,3.9s-.5,2.8-1.6,3.9c-1,1.1-2.3,1.6-3.9,1.6M1739,99.2c-4.2,0-8-1.1-11.4-3.2-3.5-2.1-6.2-4.9-8.3-8.5-2.1-3.6-3.1-7.5-3.1-11.8s1-8.3,3.1-11.8c2.1-3.6,4.8-6.4,8.3-8.5,3.5-2.1,7.3-3.2,11.4-3.2s6.1.6,8.9,1.8c2.8,1.2,5.2,2.8,7.2,4.9v-6h7.6v45.8h-7.6v-6c-2,2-4.4,3.7-7.2,4.9-2.8,1.2-5.7,1.8-8.9,1.8M1740.1,91.7c2.9,0,5.5-.7,7.9-2.2,2.4-1.4,4.2-3.4,5.6-5.8,1.4-2.4,2.1-5.1,2.1-8.1s-.7-5.6-2.1-8.1c-1.4-2.4-3.3-4.3-5.6-5.8-2.4-1.5-5-2.2-7.9-2.2s-5.5.7-7.9,2.2c-2.4,1.4-4.2,3.4-5.7,5.8-1.4,2.4-2.1,5.1-2.1,8.1,0,3,.7,5.6,2.1,8.1s3.3,4.3,5.7,5.8c2.4,1.5,5,2.2,7.9,2.2"/>
  </g>
  <path class="st1" d="M1220,0h560v129h-560V0Z"/>
</svg>