<svg xmlns="http://www.w3.org/2000/svg" xml:space="preserve" width="3000" height="129" data-id="lg_tCoFOzWht8yMF4R2j9" data-version="1" viewBox="0 0 2000 129"><g data-padding="20"><g transform="translate(10 2.304)scale(.96429)"><rect width="560" height="128.82" x="346.167" y="-400.14" fill="none" rx="0" ry="0" transform="translate(400.5 400.23)"/><path fill="#ff5630" d="M776.787 100.77q-6.89 0-12.59-3.33-5.7-3.32-9.06-8.95-3.37-5.62-3.37-12.42 0-6.89 3.37-12.47 3.36-5.58 9.06-8.91 5.7-3.32 12.59-3.32 6.97 0 12.63 3.32 5.66 3.33 9.02 8.91 3.37 5.58 3.37 12.47 0 6.8-3.37 12.42-3.36 5.63-9.02 8.95-5.66 3.33-12.63 3.33m0-8.08q4.59 0 8.31-2.26 3.72-2.25 5.94-6.01t2.22-8.35q0-4.6-2.22-8.36t-5.94-6.01q-3.72-2.26-8.31-2.26t-8.31 2.26q-3.72 2.25-5.94 6.01t-2.22 8.36q0 4.59 2.22 8.35t5.94 6.01q3.72 2.26 8.31 2.26m87.57 7.13h-34.36l22.49-39.9h-21.06v-7.6h34.2l-22.48 39.9h21.21Zm41.32-.01h-8.55v-47.5h8.55Zm-4.27-56.05q-2.38 0-4.04-1.67-1.66-1.66-1.66-4.03 0-2.46 1.66-4.08t4.04-1.62q2.45 0 4.08 1.62 1.62 1.62 1.62 4.08 0 2.37-1.62 4.03-1.63 1.67-4.08 1.67m48.77 56.05h-8.55v-47.5h7.92v6.8q2.61-3.88 6.61-5.81 4-1.94 8.43-1.94 4.83 0 8.87 2.25 4.04 2.26 6.49 6.3 2.77-4.28 7.16-6.42 4.4-2.13 9.31-2.13 5.38 0 9.85 2.53 4.48 2.53 7.13 7.08 2.65 4.56 2.65 10.73v28.11h-8.55V72.73q0-6.49-3.68-9.86-3.68-3.36-8.51-3.36-3.01 0-5.82 1.35-2.81 1.34-4.59 4.19t-1.78 7.44v27.32h-8.55V72.73q0-4.51-1.79-7.44-1.78-2.93-4.59-4.39-2.81-1.47-5.82-1.47-2.92 0-5.74 1.35-2.81 1.34-4.63 4.19t-1.82 7.52Zm121.22.63q-6.49 0-11.87-3.29-5.39-3.28-8.59-8.82-3.21-5.55-3.21-12.27 0-6.73 3.21-12.28 3.2-5.54 8.59-8.82 5.38-3.29 11.87-3.29 4.91 0 9.23 1.82 4.31 1.82 7.48 5.07v-6.25h7.91v47.5h-7.91v-6.26q-3.17 3.17-7.48 5.03-4.32 1.86-9.23 1.86m1.11-7.76q4.51 0 8.2-2.26 3.68-2.25 5.85-6.01 2.18-3.76 2.18-8.35 0-4.6-2.18-8.36-2.17-3.76-5.85-6.01-3.69-2.26-8.2-2.26t-8.19 2.26q-3.68 2.25-5.86 6.01t-2.18 8.36q0 4.59 2.18 8.35t5.86 6.01q3.68 2.26 8.19 2.26m68.01 7.13h-8.55v-47.5h7.92v7.67q2.61-4.19 6.77-6.41 4.15-2.21 8.98-2.21 5.07 0 9.38 2.49 4.32 2.49 7.01 7.2t2.69 11.44v27.32h-8.55V73.68q0-5.62-3.36-9.93-3.37-4.32-9.46-4.32-4.99 0-8.91 3.6t-3.92 10.41Zm77.74 0h-8.55v-47.5h8.55Zm-4.27-56.05q-2.38 0-4.04-1.67-1.66-1.66-1.66-4.03 0-2.46 1.66-4.08t4.04-1.62q2.45 0 4.07 1.62 1.63 1.62 1.63 4.08 0 2.37-1.63 4.03-1.62 1.67-4.07 1.67m60.56 56.68q-6.49 0-11.87-3.29-5.38-3.28-8.59-8.82-3.21-5.55-3.21-12.27 0-6.73 3.21-12.28 3.21-5.54 8.59-8.82 5.38-3.29 11.87-3.29 4.91 0 9.23 1.82 4.31 1.82 7.48 5.07v-6.25h7.91v47.5h-7.91v-6.26q-3.17 3.17-7.48 5.03-4.32 1.86-9.23 1.86m1.11-7.76q4.51 0 8.2-2.26 3.68-2.25 5.85-6.01 2.18-3.76 2.18-8.35 0-4.6-2.18-8.36-2.17-3.76-5.85-6.01-3.69-2.26-8.2-2.26t-8.19 2.26q-3.68 2.25-5.86 6.01t-2.18 8.36q0 4.59 2.18 8.35t5.86 6.01q3.68 2.26 8.19 2.26"/></g><path fill="transparent" stroke="transparent" d="M720 0h560v129H720z"/></g></svg>